<?xml version="1.0" encoding="utf-8"?>
<!-- Generator: Adobe Illustrator 24.0.1, SVG Export Plug-In . SVG Version: 6.00 Build 0)  -->
<svg version="1.1" xmlns="http://www.w3.org/2000/svg" xmlns:xlink="http://www.w3.org/1999/xlink" x="0px" y="0px"
	 viewBox="0 0 600 600" style="enable-background:new 0 0 600 600;" xml:space="preserve">
<style type="text/css">
	.st0{fill:#FFE4A9;}
	.st1{fill:none;stroke:#363639;stroke-width:14.1981;stroke-linecap:round;stroke-linejoin:round;stroke-miterlimit:10;}
	.st2{fill:#363639;}
	.st3{fill:none;stroke:#363639;stroke-width:12.4233;stroke-linecap:round;stroke-linejoin:round;stroke-miterlimit:10;}
</style>
<g id="body-neutral">
	<g>
		<path class="st0" d="M398.56,257.57c5.98,12,8.19,20.98,19.97,23.98c11.77,2.81,30.64,10.37,32.84,14.06
			c2.21,3.41-8.42,22.74-11.86,28.39c-3.42,5.5-12.22,20.77-8.24,26.46c4,5.51,23.68-4.21,26.81-3.64
			c3.14,0.19,10.04-0.07,8.87,2.72c-1.16,2.75-5.7,11.04-12.32,14.95c-6.61,3.89-12.3,8.34-25.35,3.9
			c-13.04-4.53-14.63-5.05-16.26-8.04c-1.63-3.05,1.63-19.11,4.33-27.16c2.71-8.06,8.82-19.47,4.93-23.43
			c-3.89-3.67-22.22-8.23-22.22-8.56"/>
	</g>
	<path class="st1" d="M394.64,258.38c6.11,11.11,4.88,16.13,16.73,19.05c11.85,2.92,30.8,11.29,32.99,14.8
		c2.19,3.52-3.68,21.4-7.1,26.79s-11.07,13.59-7.1,19.52c3.97,5.94,19.16,7.83,22.28,8.05c3.12,0.23,10.84,1.47,9.66,4.37
		c-1.18,2.9-6.59,9.72-13.16,13.54c-6.57,3.82-13.77,5.32-26.7-0.19s-14.51-5.88-16.14-8.94s1.55-18.86,4.22-26.76
		c2.67-7.9,8.77-19.02,4.87-23.1c-3.9-4.08-20.73-4.99-20.73-4.99"/>
	<g>
		<path class="st0" d="M185.77,202.6c17.69-10.09,75.97-25.24,132.38-28.32c-0.03,0,6.54-32.8,17.12-57.54
			C345.72,92,353.99,70.02,354.79,62.5c0.75-7.51-6.93-20.19-4.65-26.97c2.26-6.78,12.16-11.9,24.79-7.82
			c12.65,4.07,17.21,7.82,15.87,11.58c-1.34,3.76-11.32,11.4-13.6,19.25c-3.16,7.84-10.13,84.81-7.41,107.33
			c1.9,22.51,11.25,36.68,15.53,48.27c3.76,11.61,14.19,139.94,16.95,165.7c3.57,25.76-0.16,105.76,3.1,110.57
			c3.92,4.79,37.49-2.35,37.11,7.06c-0.36,9.37-49.95,23.94-49.98,23.96c-7.09-17.18-14.6-34.41-22.43-51.69
			c0.12-0.12-134.12,30.32-143.02,34.24c-8.79,3.79-18.56,5.5-21.76,24.09c-3.29,18.59-5.42,29.32-9.69,33.85
			c-4.16,4.5-36.08,30.18-47.99,27.25c-11.7-2.99,27.74-29.83,30.38-43.91c3.47-14.14,11.64-82.03,12.7-98.83
			c2.96-16.82-4.59-170.36-8.23-185.62c-3.42-15.25-10.49-31.43-18.06-39.07c-7.75-7.59-35.49-53.48-39.35-60.82
			c-4.19-7.28-22.14-42.18-33.79-50.13c-11.78-7.92-25.44-16.67-3.56-36.73c22.06-20.01,35.22-8.79,31.63,10.73
			c-3.49,19.55-0.92,29.64,10.19,39.85c11.08,10.22,22.55,32.48,26.42,37.31C159.64,166.82,185.68,202.63,185.77,202.6z"/>
	</g>
	<path class="st1" d="M197.5,315.85c-0.17-31.18-0.71-57.64-1.74-63.49c-2.65-15.11-9.02-31.11-16.33-38.61
		c-7.31-7.5-33.94-52.49-37.94-59.62c-4-7.13-22.27-41.17-34.35-48.71c-12.08-7.54-26.01-15.76-5.15-35.95s35-9.55,32.4,9.77
		c-2.6,19.32,0.15,29.18,11.5,39.04c11.35,9.85,22.83,31.67,26.62,36.39c3.79,4.72,29.05,39.88,29.05,39.88
		c18.09-10.18,76.96-26.07,133.68-30.04c0,0,7.31-33.14,17.42-58.34s17.1-47.62,17.37-55.23c0.27-7.61-8.54-20.17-6.93-27.06
		s10.97-12.37,24.14-8.67s18.14,7.36,17.16,11.21c-0.99,3.85-10.35,11.88-12.08,19.89s-16.39,85.04-14.93,107.82
		s9.25,36.93,13.05,48.66c3.81,11.73,16.83,143.27,18.48,169.47c1.65,26.2-3.28,107.4,0.7,112.36c3.98,4.96,37.23-1.58,37.02,8.02
		c-0.2,9.59-48.93,23.21-48.93,23.21l-23.34-52.9c0,0-133.16,27.84-141.75,31.42c-8.6,3.58-18.37,5.06-20.67,23.47
		c-2.3,18.42-3.46,29.04-7.34,33.42s-32.87,28.93-44.95,25.62c-12.08-3.3,24.36-28.73,26.17-42.67s8.34-81.1,10.16-97.74
		c0.41-3.75,0.76-14.37,1.02-28.76"/>
	<g>
		<path class="st0" d="M195.33,308.01c-0.69,12.66-0.03,22.34-9.41,30.45c-9.37,8.32-22.87,23.35-23.35,27.3
			c-0.48,4.63,17.53,18.34,22.97,20.94c5.42,3.07,19.74,11.39,18.75,18.52c-1,6.97-22.53,9.67-25.28,11.23
			c-2.74,1.76-9.31,4.14-6.98,6.25c2.33,2.18,10.3,7.83,17.96,7.61c7.65-0.09,14.55,0.17,23.86-10.48
			c9.3-10.45,10.56-10.94,10.7-14.41c0.13-3.47-9.69-16.76-15.54-22.39c-5.86-5.78-16.18-12.44-14.43-17.94
			c1.76-5.67,19.1-19.81,19.09-19.52"/>
	</g>
	<path class="st1" d="M197.44,307.27c-0.69,12.66,2.58,16.65-6.84,24.42s-22.88,23.51-23.33,27.63
		c-0.45,4.12,17.59,16.98,23.01,20.35s19.67,12.81,18.67,19.88c-1.01,7.07-22.71,10.71-25.43,12.27s-9.22,3.85-6.91,5.96
		c2.32,2.11,10.23,8.07,17.81,8.67c7.58,0.6,14.72-1.17,23.98-11.73c9.26-10.56,10.53-11.58,10.68-15.04
		c0.15-3.46-9.56-16.33-15.39-22.3s-16.14-13.35-14.39-18.72c1.75-5.37,16.53-13.47,16.53-13.47"/>
</g>
<g id="face-excited">
	
		<ellipse transform="matrix(0.1089 -0.9941 0.9941 0.1089 -19.0535 511.6678)" class="st2" cx="275.87" cy="266.46" rx="7.27" ry="6.53"/>
	
		<ellipse transform="matrix(0.9974 -0.0724 0.0724 0.9974 -16.2712 27.3121)" class="st2" cx="368.75" cy="238.19" rx="5.21" ry="5.81"/>
	<path class="st3" d="M345.77,265.36c-7.41,17.59-23.19,15.65-33.09,6.02l5.7-1.74c6.47-1.97,13.14-3.22,19.88-3.72L345.77,265.36z"
		/>
</g>
</svg>
